<svg width="500" height="500" viewBox="0 0 500 500" fill="none" xmlns="http://www.w3.org/2000/svg">
<path opacity="0.7" d="M67.9305 167.09C67.9305 167.09 40.0505 239.09 79.2305 311.59C118.41 384.09 199.11 422.39 263.7 455.14C328.29 487.89 395.361 471.94 427.23 418.3C459.1 364.66 415.39 326.37 415.33 249.88C415.27 173.39 426.78 153.14 385.33 88.5199C343.88 23.8999 242.27 9.58995 165.43 57.52C88.5905 105.45 67.9305 167.09 67.9305 167.09Z" fill="white"/>
<path d="M77.0701 166.45C105.89 113.39 178.39 51.45 277.85 77.25C377.31 103.05 444.51 157.63 433.5 252.59C422.49 347.55 364.63 426.45 240 428.76C115.37 431.07 13.8701 282.8 77.0701 166.45Z" fill="#92E3A9"/>
<path opacity="0.7" d="M77.0701 166.45C105.89 113.39 178.39 51.45 277.85 77.25C377.31 103.05 444.51 157.63 433.5 252.59C422.49 347.55 364.63 426.45 240 428.76C115.37 431.07 13.8701 282.8 77.0701 166.45Z" fill="white"/>
<path d="M439.108 238.209L374.24 248.251C371.763 248.635 370.065 250.954 370.448 253.432L376.565 292.942C376.948 295.42 379.268 297.117 381.746 296.734L446.613 286.692C449.091 286.308 450.789 283.988 450.405 281.511L444.289 242.001C443.905 239.523 441.586 237.826 439.108 238.209Z" stroke="#263238" stroke-linecap="round" stroke-linejoin="round"/>
<path d="M371.439 259.81L445.279 248.38" stroke="#263238" stroke-linecap="round" stroke-linejoin="round"/>
<path d="M439.506 261.341L427.578 263.188L430.237 280.363L442.165 278.516L439.506 261.341Z" stroke="#263238" stroke-linecap="round" stroke-linejoin="round"/>
<path d="M432.42 266C434.94 263 439.08 265 438.11 274.31L441.8 276.14L442.16 278.48L430.24 280.33L429.75 277.2L434.25 275.45C434.25 275.45 430.05 268.83 432.42 266Z" stroke="#263238" stroke-linecap="round" stroke-linejoin="round"/>
<path d="M406.55 287C406.55 287 415.17 287.07 412.7 285.35C410.23 283.63 409.86 281.89 411.96 281.86C414.06 281.83 417.58 285.86 417.3 283.4C417.02 280.94 418.54 282.54 418.83 282.7C419.12 282.86 421.61 281.86 421.73 282.15C421.85 282.44 421.68 283.25 429.79 282" stroke="#263238" stroke-linecap="round" stroke-linejoin="round"/>
<path d="M377.699 267.48L413.859 261.88" stroke="#263238" stroke-linecap="round" stroke-linejoin="round"/>
<path d="M378.34 271.58L399.64 268.28" stroke="#263238" stroke-linecap="round" stroke-linejoin="round"/>
<path d="M379.46 278.81L409.17 274.21" stroke="#263238" stroke-linecap="round" stroke-linejoin="round"/>
<path d="M388.68 251.77L424.94 246.15" stroke="#263238" stroke-linecap="round" stroke-linejoin="round"/>
<path d="M43.3496 226.44L124.42 210.25L152.73 346.17L66.5596 364.65L43.3496 226.44Z" stroke="#263238" stroke-linecap="round" stroke-linejoin="round"/>
<path d="M63.2998 345.26L149.3 329.69" stroke="#263238" stroke-linecap="round" stroke-linejoin="round"/>
<path d="M139.11 318.13L98.04 325.71" stroke="#263238" stroke-linecap="round" stroke-linejoin="round"/>
<path d="M133.02 311.31L121.02 313.08" stroke="#263238" stroke-linecap="round" stroke-linejoin="round"/>
<path d="M134.85 297.43L73.5498 308.93" stroke="#263238" stroke-linecap="round" stroke-linejoin="round"/>
<path d="M53.9492 289.58L137.859 274.77" stroke="#263238" stroke-linecap="round" stroke-linejoin="round" stroke-dasharray="1 2"/>
<path d="M143.11 341.77L92.1396 352.45" stroke="#263238" stroke-linecap="round" stroke-linejoin="round"/>
<path d="M141.59 337.47L117.63 341.77" stroke="#263238" stroke-linecap="round" stroke-linejoin="round"/>
<path d="M128.63 265.81L86.5996 274.14" stroke="#263238" stroke-linecap="round" stroke-linejoin="round"/>
<path d="M125.31 256.48L111.92 259.11" stroke="#263238" stroke-linecap="round" stroke-linejoin="round"/>
<path d="M124.52 250L63.2998 261.8" stroke="#263238" stroke-linecap="round" stroke-linejoin="round"/>
<path d="M118.96 218.46L102.43 221.88" stroke="#263238" stroke-linecap="round" stroke-linejoin="round"/>
<path d="M63.3 230.21L49.04 232.98" stroke="#263238" stroke-linecap="round" stroke-linejoin="round"/>
<path d="M54.2295 240.84C54.5269 239.826 55.0376 238.888 55.7275 238.087C56.4174 237.287 57.2705 236.643 58.2295 236.2" stroke="#263238" stroke-linecap="round" stroke-linejoin="round"/>
<path d="M60.57 250C58.7993 249.79 57.1625 248.952 55.9569 247.639C54.7514 246.325 54.057 244.622 54 242.84" stroke="#263238" stroke-linecap="round" stroke-linejoin="round"/>
<path d="M66.13 248.3C65.1149 249.213 63.8516 249.805 62.5 250" stroke="#263238" stroke-linecap="round" stroke-linejoin="round"/>
<path d="M61.2695 235.52C62.5571 235.562 63.8118 235.937 64.9114 236.608C66.0111 237.279 66.9182 238.223 67.5445 239.349C68.1708 240.475 68.4949 241.744 68.4853 243.032C68.4757 244.32 68.1326 245.584 67.4895 246.7" stroke="#263238" stroke-linecap="round" stroke-linejoin="round"/>
<path d="M75.8496 237.4C74.5196 236.98 73.1996 236.5 71.8496 236.2" stroke="#263238" stroke-linecap="round" stroke-linejoin="round"/>
<path d="M87.1894 238.36C86.0594 241.05 79.7394 238.6 77.8994 238.04" stroke="#263238" stroke-linecap="round" stroke-linejoin="round"/>
<path d="M76.3691 231.22L88.1891 234C87.9991 234.79 87.8491 235.59 87.6991 236.38" stroke="#263238" stroke-linecap="round" stroke-linejoin="round"/>
<path d="M70.5195 234C71.7795 231 71.2795 230 74.4195 230.73" stroke="#263238" stroke-linecap="round" stroke-linejoin="round"/>
<path d="M214.75 446.27L230.4 451.07L218.77 437.37C225.145 430.282 228.796 421.16 229.07 411.63" stroke="#263238" stroke-linecap="round" stroke-linejoin="round"/>
<path d="M195.76 452.31C201.005 450.636 205.956 448.149 210.43 444.94" stroke="#263238" stroke-linecap="round" stroke-linejoin="round"/>
<path d="M135.37 423.21C139.98 445.42 164.52 459.1 190.19 453.78" stroke="#263238" stroke-linecap="round" stroke-linejoin="round"/>
<path d="M139.11 398.17C138.125 400.041 137.289 401.987 136.61 403.99" stroke="#263238" stroke-linecap="round" stroke-linejoin="round"/>
<path d="M228.32 403.93C223.72 381.72 199.17 368.04 173.51 373.37C161.858 375.658 151.357 381.909 143.79 391.06" stroke="#263238" stroke-linecap="round" stroke-linejoin="round"/>
<path d="M201.09 395.79C193.7 387.74 183.63 393.32 179.44 401.49C172.52 395.49 161.09 394.02 157.23 404.25C150.71 421.48 173.01 431.99 183.33 435.79C184.5 436.23 185.46 436.6 186.26 436.87C186.91 436.32 187.67 435.62 188.59 434.78C196.75 427.41 213.55 409.37 201.09 395.79Z" stroke="#263238" stroke-linecap="round" stroke-linejoin="round"/>
<path d="M262.54 68L247.43 61.71L257.68 76.47C250.674 82.9102 246.181 91.6274 245 101.07" stroke="#263238" stroke-linecap="round" stroke-linejoin="round"/>
<path d="M282 63.7899C276.621 64.9562 271.455 66.9535 266.69 69.7099" stroke="#263238" stroke-linecap="round" stroke-linejoin="round"/>
<path d="M339.33 98.57C336.88 76 313.77 60 287.71 62.87" stroke="#263238" stroke-linecap="round" stroke-linejoin="round"/>
<path d="M333.2 123.13C334.343 121.361 335.346 119.505 336.2 117.58" stroke="#263238" stroke-linecap="round" stroke-linejoin="round"/>
<path d="M245 108.81C247.45 131.36 270.56 147.34 296.62 144.51C308.436 143.349 319.487 138.138 327.9 129.76" stroke="#263238" stroke-linecap="round" stroke-linejoin="round"/>
<path d="M303.125 122.61C314.679 116.425 319.032 102.044 312.847 90.4898C306.662 78.9353 292.281 74.5826 280.727 80.7677C269.172 86.9527 264.82 101.333 271.005 112.888C277.19 124.442 291.57 128.795 303.125 122.61Z" stroke="#263238" stroke-linecap="round" stroke-linejoin="round"/>
<path d="M282.91 104.69L290.01 111.39L301.85 91" stroke="#263238" stroke-linecap="round" stroke-linejoin="round"/>
<path opacity="0.2" d="M321.589 327.71C321.589 327.71 318.029 370.79 323.179 381.24C328.329 391.69 330.909 463.09 328.599 472.07C328.599 472.07 345.179 476.25 351.739 470.31C358.299 464.37 368.389 470.09 385.009 464.31C401.629 458.53 389.639 330.24 389.639 330.24L390.149 283.57L362.739 259.15L321.589 327.71Z" fill="black" fill-opacity="0.7"/>
<path d="M343.69 348.43C343.586 348.738 343.419 349.021 343.2 349.26C339.66 352.61 324.55 356.33 311.57 359.01C300.82 361.24 291.57 362.75 291.57 362.75C291.57 362.75 284.45 303.58 284.45 297.36C284.45 291.14 272.97 190.44 272.97 190.44L300.49 189.25L337 187.67C337 187.67 337.22 190.36 337.59 195.06C340 225 348.28 336.62 343.69 348.43Z" fill="#92E3A9"/>
<mask id="mask0_650_1950" style="mask-type:luminance" maskUnits="userSpaceOnUse" x="272" y="187" width="74" height="176">
<path d="M343.69 348.43C343.586 348.738 343.419 349.021 343.2 349.26C339.66 352.61 324.55 356.33 311.57 359.01C300.82 361.24 291.57 362.75 291.57 362.75C291.57 362.75 284.45 303.58 284.45 297.36C284.45 291.14 272.97 190.44 272.97 190.44L300.49 189.25L337 187.67C337 187.67 337.22 190.36 337.59 195.06C340 225 348.28 336.62 343.69 348.43Z" fill="white"/>
</mask>
<g mask="url(#mask0_650_1950)">
<path opacity="0.2" d="M343.69 348.43L311.57 355L299.44 357.49C296.15 354.26 293.64 354.2 293.64 354.2L292.64 345.15L291.07 330.34L277.25 200.04C280.25 197.97 281.73 193.44 281.73 193.44L300.23 192.77L332.28 191.6L337.57 195.02C340 225 348.28 336.62 343.69 348.43Z" fill="black" fill-opacity="0.7"/>
<path d="M343.69 348.43L311.57 355L299.44 357.49C296.15 354.26 293.64 354.2 293.64 354.2L292.64 345.15L291.07 330.34L277.25 200.04C280.25 197.97 281.73 193.44 281.73 193.44L300.23 192.77L332.28 191.6L337.57 195.02C340 225 348.28 336.62 343.69 348.43Z" stroke="#263238" stroke-linecap="round" stroke-linejoin="round"/>
<path d="M295.34 310.07L306.06 310.05L306.07 313.4L303.09 314.46L296.22 315.21L295.34 310.07Z" fill="#92E3A9" stroke="#263238" stroke-linecap="round" stroke-linejoin="round"/>
<path d="M296 316.97L303.88 316.7L305.9 317.66L305.8 322.11L296.6 322.21L296 316.97Z" fill="#92E3A9" stroke="#263238" stroke-linecap="round" stroke-linejoin="round"/>
<path d="M297.26 324.08L306.26 323.43L306.16 326.8L301.81 328.34L297.21 328.08L297.26 324.08Z" fill="#92E3A9" stroke="#263238" stroke-linecap="round" stroke-linejoin="round"/>
<path d="M297.8 329.76L305.07 330.13L305.73 331.99L304.67 334.04L298.17 334.46L297.05 331.29L297.8 329.76Z" fill="#92E3A9" stroke="#263238" stroke-linecap="round" stroke-linejoin="round"/>
<path d="M306.18 336.27L307.18 339.18C307.34 339.489 307.423 339.832 307.423 340.18C307.423 340.528 307.34 340.871 307.18 341.18C306.994 341.393 306.757 341.554 306.491 341.648C306.225 341.743 305.939 341.768 305.66 341.72C305.1 341.67 304.55 341.48 303.99 341.45C302.3 341.38 300.75 342.77 299.09 342.45C298.44 340.65 296.8 338.01 299.02 337.2C299.43 337.07 306.42 336.93 306.18 336.27Z" fill="#92E3A9" stroke="#263238" stroke-linecap="round" stroke-linejoin="round"/>
<path d="M306.15 344.46C306.308 345.152 306.422 345.853 306.49 346.56C306.591 347.007 306.577 347.472 306.447 347.912C306.317 348.351 306.077 348.75 305.75 349.07C305.323 349.304 304.846 349.431 304.36 349.44L298.58 349.96C298.495 348.869 298.479 347.773 298.53 346.68C298.87 345.38 298.63 345.49 299.86 344.96C301.81 344.13 304.15 345.45 306.15 344.46Z" fill="#92E3A9" stroke="#263238" stroke-linecap="round" stroke-linejoin="round"/>
<path d="M285.13 203C285.13 203 287.31 224.07 287.41 228.24" stroke="#263238" stroke-linecap="round" stroke-linejoin="round"/>
<path d="M289.83 203.23L290.85 214.84" stroke="#263238" stroke-linecap="round" stroke-linejoin="round"/>
<path d="M306.12 198.84L307.44 212.45L309.29 212.63L308.69 198.97L306.12 198.84Z" fill="#92E3A9" stroke="#263238" stroke-linecap="round" stroke-linejoin="round"/>
<path opacity="0.2" d="M343.69 348.43C343.587 348.738 343.42 349.021 343.2 349.26C339.66 352.61 324.55 356.33 311.57 359.01V350.01L292.68 345.17L289.83 344.44L291.11 330.36L296 276.56L300.27 192.81L300.45 189.25L337 187.67C337 187.67 337.22 190.36 337.59 195.06C340 225 348.28 336.62 343.69 348.43Z" fill="black" fill-opacity="0.7"/>
</g>
<path d="M343.69 348.43C343.586 348.738 343.419 349.021 343.2 349.26C339.66 352.61 324.55 356.33 311.57 359.01C300.82 361.24 291.57 362.75 291.57 362.75C291.57 362.75 284.45 303.58 284.45 297.36C284.45 291.14 272.97 190.44 272.97 190.44L300.49 189.25L337 187.67C337 187.67 337.22 190.36 337.59 195.06C340 225 348.28 336.62 343.69 348.43Z" stroke="#263238" stroke-linecap="round" stroke-linejoin="round"/>
<path d="M363.06 482.7C363.29 480.59 359.97 450.32 359.91 447.03C359.75 438.03 357.2 426.22 357.2 426.22C353.64 417.12 350.87 396.15 341.37 382.7C331.87 369.25 331.88 353.43 330.3 340C328.72 326.57 329.11 327.73 329.51 315.81C329.799 306.856 329.401 297.893 328.32 289C327.53 281.08 325.95 267.15 328.32 260.66C330.69 254.17 336.89 252.66 343.68 259.16C350.47 265.66 353.24 292.31 353.24 295.6C353.24 298.89 353.24 309.17 355.62 313.13C355.62 313.13 369.07 306.25 369.07 304.35C369.07 302.45 368.67 285.66 370.65 284.76L362.74 259.16L377.74 253.83C380.564 256.362 383.003 259.293 384.98 262.53C386.673 265.21 388.09 268.054 389.21 271.02C395.54 287.81 405.71 299.52 407.81 304.35C409.91 309.18 407.81 347.54 407.81 354.67C407.81 361.8 403.21 394.67 403.33 400.2C403.42 404.2 406.12 419.08 408.81 430.49C409.81 434.89 415.88 466.77 416.81 469.3L363.06 482.7Z" fill="white"/>
<path opacity="0.4" d="M374.9 283.07C374.8 285.22 377.37 302.36 377.37 302.36C379.15 306.63 369.43 321.19 369.43 321.19C367.33 322.37 366.43 329.69 366.43 329.69C359.85 328.23 344.78 313.08 344.78 313.08C344.78 313.08 343 319.29 341 334.66C339 350.03 351.68 386.54 357.08 411.75C362.48 436.96 359.91 447 359.91 447C359.75 438 357.2 426.19 357.2 426.19C353.64 417.09 350.87 396.12 341.37 382.67C331.87 369.22 331.88 353.43 330.3 340C328.72 326.57 329.11 327.73 329.51 315.81C329.799 306.856 329.401 297.893 328.32 289C327.53 281.08 325.95 267.15 328.32 260.66C330.69 254.17 336.89 252.66 343.68 259.16C350.47 265.66 353.24 292.31 353.24 295.6C353.24 298.89 353.24 309.17 355.62 313.13C355.62 313.13 369.07 306.25 369.07 304.35C369.07 302.45 368.67 285.66 370.65 284.76L362.74 259.16L377.74 253.83C380.564 256.362 383.003 259.293 384.98 262.53C380.13 272.23 375 281.73 374.9 283.07Z" fill="#92E3A9"/>
<path opacity="0.4" d="M400.12 402.85C400.78 396.85 402.75 382.59 404 373.69C402.47 380.64 400 384.16 400 384.16C400 384.16 404.26 333.16 404.68 330.05C405.1 326.94 409.4 312.96 407.82 304.3C409.92 309.12 407.82 347.49 407.82 354.62C407.82 361.75 403.22 394.62 403.34 400.15C403.43 404.15 407.72 429.64 410.41 441.05C404.63 432.65 399.46 408.88 400.12 402.85Z" fill="#92E3A9"/>
<path d="M416.79 469.25C413.63 460.15 403.48 405.65 403.36 400.15C403.24 394.65 407.84 361.74 407.84 354.62C407.84 347.5 409.94 309.12 407.84 304.3C405.74 299.48 395.57 287.76 389.24 270.97C386.847 264.405 382.914 258.51 377.77 253.78L362.77 259.11L370.68 284.71C368.68 285.61 369.1 302.4 369.1 304.3C369.1 306.2 355.65 313.08 355.65 313.08C353.27 309.08 353.27 298.84 353.27 295.55C353.27 292.26 350.5 265.6 343.71 259.11C336.92 252.62 330.71 254.11 328.35 260.61C325.99 267.11 327.56 281.03 328.35 288.95C329.432 297.853 329.83 306.826 329.54 315.79C329.14 327.71 328.74 326.53 330.33 339.98C331.92 353.43 331.91 369.25 341.4 382.7C350.89 396.15 353.67 417.12 357.23 426.22C357.23 426.22 363.95 474.79 363.09 482.7" stroke="#263238" stroke-linecap="round" stroke-linejoin="round"/>
<path d="M355.62 313.08C355.62 313.08 357.99 324.15 363.33 329.69" stroke="#263238" stroke-linecap="round" stroke-linejoin="round"/>
<path d="M357.06 318.13C357.06 318.13 367.06 321.19 371.24 321.38" stroke="#263238" stroke-linecap="round" stroke-linejoin="round"/>
<path d="M369.069 304.3C369.069 304.3 376.189 301.01 380.739 302.99" stroke="#263238" stroke-linecap="round" stroke-linejoin="round"/>
<path d="M370.649 284.71C370.649 284.71 376.189 284.2 377.369 281.43" stroke="#263238" stroke-linecap="round" stroke-linejoin="round"/>
<path d="M343.2 385.52C343.2 385.52 353.84 398.73 357 405.45" stroke="#263238" stroke-linecap="round" stroke-linejoin="round"/>
<path d="M405.07 327.71C403.29 338.2 400.91 366.88 400.12 372.02" stroke="#263238" stroke-linecap="round" stroke-linejoin="round"/>
<path d="M408.47 307.93C408.77 317.43 406.47 322.37 406.47 322.37" stroke="#263238" stroke-linecap="round" stroke-linejoin="round"/>
<path d="M326.68 175L400 194.34C400 194.34 374.23 272.55 369 282.25L360.26 350.43C360.26 350.43 313.42 348.37 291.88 341.86C291.88 341.86 305.5 270.86 306.23 261.39C306.96 251.92 326.68 175 326.68 175Z" fill="#92E3A9"/>
<mask id="mask1_650_1950" style="mask-type:luminance" maskUnits="userSpaceOnUse" x="291" y="175" width="109" height="176">
<path d="M326.68 175L400 194.34C400 194.34 374.23 272.55 369 282.25L360.26 350.43C360.26 350.43 313.42 348.37 291.88 341.86C291.88 341.86 305.5 270.86 306.23 261.39C306.96 251.92 326.68 175 326.68 175Z" fill="white"/>
</mask>
<g mask="url(#mask1_650_1950)">
<path opacity="0.2" d="M310.91 257.19L327.07 188.1C327.07 188.1 334.02 184.65 336.71 181.5L389.24 196.44C389.24 196.44 389.4 201.59 392.41 204.89L365.9 281.28L359.47 337.59C359.47 337.59 350.92 338.27 350.1 344.59C350.1 344.59 322.38 346.09 303.79 341.19C303.79 341.19 301.6 334.36 298.25 330.04L310.91 257.19Z" fill="black" fill-opacity="0.7"/>
<path d="M310.91 257.19L327.07 188.1C327.07 188.1 334.02 184.65 336.71 181.5L389.24 196.44C389.24 196.44 389.4 201.59 392.41 204.89L365.9 281.28L359.47 337.59C359.47 337.59 350.92 338.27 350.1 344.59C350.1 344.59 322.38 346.09 303.79 341.19C303.79 341.19 301.6 334.36 298.25 330.04L310.91 257.19Z" stroke="#263238" stroke-linecap="round" stroke-linejoin="round"/>
<path d="M324.36 260.78C324.36 260.78 329.13 242.78 345.93 246.01C362.73 249.24 353.24 271.42 353.24 271.42C353.24 271.42 353.34 289.32 339.71 286.85C327.89 284.71 321.59 278.22 324.36 260.78Z" fill="#92E3A9" stroke="#263238" stroke-linecap="round" stroke-linejoin="round"/>
<path d="M333.46 194.67C333.46 194.67 328.38 215.24 327.07 219.2" stroke="#263238" stroke-linecap="round" stroke-linejoin="round"/>
<path d="M337.81 196.45L334.85 207.73" stroke="#263238" stroke-linecap="round" stroke-linejoin="round"/>
<path d="M374.9 204.36L385.01 207.92L383.9 211.09H380.74L374.01 209.51L374.9 204.36Z" fill="#92E3A9" stroke="#263238" stroke-linecap="round" stroke-linejoin="round"/>
<path d="M373.22 211.09L380.74 213.46L382.32 215.04L380.74 219.2L372.03 216.23L373.22 211.09Z" fill="#92E3A9" stroke="#263238" stroke-linecap="round" stroke-linejoin="round"/>
<path d="M372.03 218.21L380.74 220.61L379.51 223.75H374.9L370.65 221.97L372.03 218.21Z" fill="#92E3A9" stroke="#263238" stroke-linecap="round" stroke-linejoin="round"/>
<path d="M370.65 223.75L377.37 226.52V228.49L375.69 230.08L369.43 228.3V224.93L370.65 223.75Z" fill="#92E3A9" stroke="#263238" stroke-linecap="round" stroke-linejoin="round"/>
<path d="M376.38 232.68V235.76C376.432 236.099 376.404 236.446 376.298 236.772C376.192 237.099 376.011 237.396 375.77 237.64C375.521 237.776 375.243 237.847 374.96 237.847C374.677 237.847 374.398 237.776 374.15 237.64C373.64 237.4 373.15 237.04 372.67 236.83C371.1 236.2 369.17 236.99 367.67 236.15C367.67 234.24 367 231.21 369.36 231.15C369.75 231.18 376.38 233.38 376.38 232.68Z" fill="#92E3A9" stroke="#263238" stroke-linecap="round" stroke-linejoin="round"/>
<path d="M373.61 240.39C373.534 241.095 373.407 241.793 373.23 242.48C373.01 243.37 372.58 244.36 371.69 244.6C371.21 244.68 370.719 244.638 370.26 244.48L364.64 243C364.911 241.948 365.245 240.913 365.64 239.9C366.4 238.79 366.14 238.81 367.47 238.72C369.63 238.63 371.39 240.66 373.61 240.39Z" fill="#92E3A9" stroke="#263238" stroke-linecap="round" stroke-linejoin="round"/>
<path d="M354.63 197.84L351.26 211.09L352.94 211.88L357 198.82L354.63 197.84Z" fill="#92E3A9" stroke="#263238" stroke-linecap="round" stroke-linejoin="round"/>
<path d="M312.4 286.82L322.78 289.51L321.94 292.75L318.79 293.03L311.95 292.02L312.4 286.82Z" fill="#92E3A9" stroke="#263238" stroke-linecap="round" stroke-linejoin="round"/>
<path d="M311.3 293.67L318.99 295.39L320.71 296.83L319.49 301.11L310.56 298.89L311.3 293.67Z" fill="#92E3A9" stroke="#263238" stroke-linecap="round" stroke-linejoin="round"/>
<path d="M310.73 300.87L319.61 302.51L318.65 305.74L314.06 306.14L309.67 304.73L310.73 300.87Z" fill="#92E3A9" stroke="#263238" stroke-linecap="round" stroke-linejoin="round"/>
<path d="M309.82 306.5L316.76 308.69L316.93 310.66L315.39 312.38L309 311.14L308.71 307.79L309.82 306.5Z" fill="#92E3A9" stroke="#263238" stroke-linecap="round" stroke-linejoin="round"/>
<path d="M316.29 314.91L316.56 317.98C316.642 318.314 316.644 318.663 316.566 318.999C316.488 319.334 316.332 319.646 316.11 319.91C315.875 320.066 315.604 320.16 315.322 320.183C315.041 320.205 314.758 320.156 314.5 320.04C313.97 319.85 313.5 319.53 312.95 319.37C311.34 318.87 309.48 319.82 307.95 319.11C307.77 317.21 306.86 314.25 309.2 314.02C309.56 314 316.35 315.61 316.29 314.91Z" fill="#92E3A9" stroke="#263238" stroke-linecap="round" stroke-linejoin="round"/>
<path d="M314.2 322.83C314.186 323.557 314.119 324.282 314 325C313.85 325.9 313.51 326.93 312.65 327.24C312.178 327.36 311.683 327.36 311.21 327.24L305.49 326.24C305.683 325.165 305.94 324.104 306.26 323.06C306.92 321.89 306.66 321.93 307.98 321.73C310.08 321.42 312 323.29 314.2 322.83Z" fill="#92E3A9" stroke="#263238" stroke-linecap="round" stroke-linejoin="round"/>
<path d="M355.62 332.54C355.62 332.54 358 306 358 303.33" stroke="#263238" stroke-linecap="round" stroke-linejoin="round"/>
<path d="M350.87 331.35C350.87 331.35 351.87 317.55 352.05 315.15" stroke="#263238" stroke-linecap="round" stroke-linejoin="round"/>
<path d="M332.32 321.38L329.11 337.09H332.32L334.65 321.38H332.32Z" fill="#92E3A9" stroke="#263238" stroke-linecap="round" stroke-linejoin="round"/>
<path opacity="0.2" d="M369.17 281.86C362.23 280.41 356.04 278.28 351.46 275.21C351.46 275.21 354.78 284.75 366.55 301.01L360.22 350.43C360.22 350.43 329.65 349.09 306.55 345.14C313.65 325.14 326.55 287.24 325.02 279.73C322.95 269.42 330.26 257.25 330.26 257.25C353.37 253.09 375.78 235.62 391.16 220.85C383.33 244 372.64 275 369.17 281.86Z" fill="black" fill-opacity="0.7"/>
</g>
<path d="M326.68 175L400 194.34C400 194.34 374.23 272.55 369 282.25L360.26 350.43C360.26 350.43 313.42 348.37 291.88 341.86C291.88 341.86 305.5 270.86 306.23 261.39C306.96 251.92 326.68 175 326.68 175Z" stroke="#263238" stroke-linecap="round" stroke-linejoin="round"/>
<path d="M367.33 330.69L357 405.45C354.7 400.56 348.43 392.22 345.19 388.05C343.99 386.49 343.19 385.52 343.19 385.52L341.36 382.7C331.87 369.25 331.87 353.43 330.29 339.98C328.71 326.53 329.1 327.71 329.5 315.79C329.791 306.843 329.396 297.887 328.32 289C327.53 281.08 325.95 267.15 328.32 260.66C329.48 257.48 331.57 255.5 334.19 255.08C336.81 254.66 340.19 255.86 343.68 259.16C350.47 265.65 353.24 292.31 353.24 295.6C353.24 298.89 353.24 309.17 355.62 313.13C355.62 313.08 362 325.15 367.33 330.69Z" fill="white"/>
<path opacity="0.4" d="M340.58 377.37C342.74 380.13 344.21 384.11 345.19 388.05C343.99 386.49 343.19 385.52 343.19 385.52L341.36 382.7C331.87 369.25 331.87 353.43 330.29 339.98C328.71 326.53 329.1 327.71 329.5 315.79C329.791 306.843 329.396 297.887 328.32 289C327.53 281.08 325.95 267.15 328.32 260.66C329.48 257.48 331.57 255.5 334.19 255.08C339.19 256.5 344.19 261.59 345.93 270.3C348.93 284.92 335.4 273.11 332.27 285.5C329.14 297.89 333.69 301.23 335.56 304.35C337.43 307.47 335.04 314.35 332.27 323.59C329.5 332.83 334.65 369.78 340.58 377.37Z" fill="#92E3A9"/>
<path d="M367.33 330.69C361.99 325.15 355.62 313.08 355.62 313.08C353.24 309.08 353.24 298.84 353.24 295.55C353.24 292.26 350.47 265.6 343.68 259.11C336.89 252.62 330.68 254.11 328.32 260.61C325.96 267.11 327.53 281.03 328.32 288.95C329.402 297.853 329.8 306.826 329.51 315.79C329.11 327.71 328.71 326.53 330.3 339.98C331.89 353.43 331.88 369.25 341.37 382.7L343.2 385.52C343.2 385.52 353.84 398.73 357 405.45" stroke="#263238" stroke-linecap="round" stroke-linejoin="round"/>
<path d="M332.319 299.05C332.319 299.05 341.389 294.36 345.929 294.76" stroke="#263238" stroke-linecap="round" stroke-linejoin="round"/>
<path opacity="0.2" d="M193.81 170.81C193.81 170.81 170.87 145.55 169.29 144C167.71 142.45 166.52 115.51 162.16 103.65C157.8 91.79 155.69 22.15 155.69 22.15C155.69 22.15 151.54 17.01 139.84 19.78C128.14 22.55 116.67 17.4 103.62 24.92C90.5699 32.44 115.88 140 115.88 140L141.57 221.87L193.81 170.81Z" fill="black" fill-opacity="0.7"/>
<path d="M209.57 171C209.57 171 199.29 236.67 188.57 245.37C182.38 250.37 172.73 252.67 164.17 252.37C157.97 252.15 152.33 250.59 149.01 247.76C141.1 241.03 130.01 237.47 124.49 233.12C118.97 228.77 118.95 213.34 115.39 200.28C111.83 187.22 106.68 186.83 105.5 173.78C104.32 160.73 99.56 120.78 90.96 109.69C82.36 98.6 82.16 89.91 78.6 78.63C75.04 67.35 49 26.54 49 26.54L112.48 13.54C112.48 13.54 118.72 39.37 125.4 60.44C128.57 70.44 131.84 79.38 134.58 83.96C139.841 92.819 144.399 102.077 148.21 111.65C155.39 119.17 159.32 135.83 160.51 150.42L177.51 159.9C190.58 163.47 209.57 171 209.57 171Z" fill="white"/>
<path opacity="0.4" d="M209.57 171C209.57 171 199.29 236.67 188.57 245.37C182.38 250.37 172.73 252.67 164.17 252.37C143.87 247.37 138.41 236.05 135.66 233.31C132 229.66 127.19 207.42 129.83 194.48C132.47 181.54 130.57 176.75 128.39 170.43C123.56 156.43 138.29 148.89 139.81 143.59C141.33 138.29 140.81 108.65 134.18 99.0101C130.66 93.8801 121.59 67.4401 125.41 60.4601C128.58 70.4601 131.85 79.4001 134.59 83.9801C139.851 92.839 144.408 102.097 148.22 111.67C155.4 119.19 159.33 135.85 160.52 150.44L177.52 159.92C190.58 163.47 209.57 171 209.57 171Z" fill="#92E3A9"/>
<path d="M132.05 166.38C132.05 166.38 128.47 170.59 125.31 170.59" stroke="#263238" stroke-linecap="round" stroke-linejoin="round"/>
<path d="M139.84 180.61C139.84 180.61 135.99 188.79 129.84 190.61" stroke="#263238" stroke-linecap="round" stroke-linejoin="round"/>
<path d="M133 228.55C133 228.55 141.71 224.79 143.09 218.46" stroke="#263238" stroke-linecap="round" stroke-linejoin="round"/>
<path d="M177.53 159.91C177.53 159.91 175.35 162.68 175.35 164.91" stroke="#263238" stroke-linecap="round" stroke-linejoin="round"/>
<path d="M112.52 13.54C112.52 13.54 126.1 69.71 134.62 84C139.881 92.859 144.439 102.117 148.25 111.69C155.43 119.21 159.36 135.88 160.55 150.47L177.55 159.95C190.6 163.51 209.55 171.03 209.55 171.03C209.55 171.03 199.27 236.7 188.55 245.4C177.83 254.1 157 254.46 149 247.74C141 241.02 130 237.45 124.48 233.1C118.96 228.75 118.94 213.32 115.38 200.26C111.82 187.2 106.67 186.81 105.49 173.76C104.31 160.71 99.55 120.76 90.95 109.67C82.35 98.58 82.15 89.89 78.59 78.61C75.03 67.33 49 26.54 49 26.54" stroke="#263238" stroke-linecap="round" stroke-linejoin="round"/>
<path d="M233.62 166.74L128.63 328.35L153.41 331.11L228.7 334.24L236.41 190.49L233.62 166.74Z" fill="#263238" stroke="#263238" stroke-linecap="round" stroke-linejoin="round"/>
<path d="M233.62 166.73L223.92 331.48L128.63 328.35L136.15 202.11L138.49 162.91L180.01 164.58L233.62 166.73Z" fill="#757575"/>
<mask id="mask2_650_1950" style="mask-type:luminance" maskUnits="userSpaceOnUse" x="128" y="162" width="106" height="170">
<path d="M233.62 166.73L223.92 331.48L128.63 328.35L136.15 202.11L138.49 162.91L180.01 164.58L233.62 166.73Z" fill="white"/>
</mask>
<g mask="url(#mask2_650_1950)">
<path d="M209.66 312.51C216.066 312.51 221.26 307.317 221.26 300.91C221.26 294.504 216.066 289.31 209.66 289.31C203.253 289.31 198.06 294.504 198.06 300.91C198.06 307.317 203.253 312.51 209.66 312.51Z" fill="#BFBFBF" stroke="#263238" stroke-miterlimit="10"/>
<path d="M206.39 293.21L214.25 294.24" stroke="#263238" stroke-linecap="round" stroke-linejoin="round"/>
<path d="M204.28 295.12L216.09 296.27" stroke="#263238" stroke-linecap="round" stroke-linejoin="round"/>
<path d="M202.97 306.76L214.79 307.91" stroke="#263238" stroke-linecap="round" stroke-linejoin="round"/>
<path d="M208.14 297.75C208.464 297.831 208.807 297.783 209.098 297.618C209.389 297.452 209.604 297.181 209.7 296.86L210.58 296.95L209.69 305.3L208.38 305.16L209.06 298.79L208.06 298.68L208.14 297.75Z" fill="#263238"/>
<path d="M212.51 298.1C213.03 298.1 213.27 298.49 213.21 299.04V299.14L212.7 299.09V299C212.7 298.76 212.64 298.65 212.47 298.63C212.3 298.61 212.19 298.7 212.17 298.94C212.15 299.18 212.23 299.39 212.55 299.73C212.712 299.868 212.84 300.042 212.921 300.238C213.003 300.435 213.037 300.648 213.02 300.86C212.96 301.41 212.66 301.69 212.13 301.63C211.6 301.57 211.37 301.23 211.42 300.69V300.48L211.92 300.53V300.78C211.92 301.02 211.99 301.12 212.16 301.14C212.33 301.16 212.45 301.08 212.47 300.84C212.49 300.6 212.41 300.39 212.09 300.05C211.927 299.912 211.8 299.738 211.718 299.542C211.636 299.345 211.603 299.132 211.62 298.92C211.69 298.32 212 298 212.51 298.1Z" fill="#263238"/>
<path d="M213.449 298.24L215.109 298.41L215.049 298.9L214.489 298.84L214.179 301.76L213.649 301.71L213.959 298.78L213.399 298.72L213.449 298.24Z" fill="#263238"/>
<path d="M185.338 174.044L166.736 169.984C166.256 169.879 165.781 170.184 165.676 170.664L163.146 182.261C163.041 182.741 163.345 183.216 163.826 183.32L182.428 187.38C182.908 187.484 183.382 187.18 183.487 186.7L186.018 175.103C186.123 174.623 185.818 174.148 185.338 174.044Z" fill="white" stroke="#263238" stroke-linecap="round" stroke-linejoin="round"/>
<path d="M170 181.42L169.93 181.35C169.93 181.35 169.93 181.23 169.88 181.18C169.832 181.135 169.794 181.081 169.77 181.02C169.765 181 169.765 180.98 169.77 180.96C169.77 180.96 169.82 180.96 169.85 180.89C169.874 180.875 169.895 180.855 169.911 180.83C169.926 180.806 169.936 180.779 169.94 180.75C169.936 180.734 169.936 180.716 169.94 180.7H170C170 180.51 169.88 180.37 169.76 180.22C169.47 179.86 169.41 179.68 169.47 179.44C169.53 179.2 169.63 179.13 169.8 179.16C169.97 179.19 170.04 179.31 169.99 179.55V179.69L170.49 179.8V179.69C170.557 179.513 170.554 179.317 170.482 179.142C170.409 178.968 170.273 178.827 170.1 178.75L170.16 178.51L169.73 178.41L169.68 178.66C169.29 178.66 169.04 178.91 168.94 179.36C168.901 179.561 168.915 179.769 168.98 179.963C169.045 180.157 169.158 180.332 169.31 180.47C169.6 180.82 169.66 181.02 169.6 181.25C169.54 181.48 169.43 181.56 169.26 181.52C169.09 181.48 169.01 181.37 169.06 181.14L169.12 180.87L168.62 180.76V180.99C168.578 181.081 168.556 181.18 168.553 181.28C168.55 181.38 168.568 181.479 168.604 181.572C168.64 181.665 168.695 181.75 168.765 181.822C168.834 181.894 168.918 181.951 169.01 181.99V182.23L169.44 182.33L169.49 182.08H169.75C169.828 182.053 169.9 182.008 169.96 181.95C170.021 181.889 170.071 181.818 170.11 181.74C170 181.48 170 181.45 170 181.42Z" fill="#263238"/>
<path d="M172.749 181.26C172.745 181.18 172.725 181.102 172.689 181.03C172.68 180.991 172.68 180.949 172.689 180.91C172.705 180.88 172.729 180.855 172.759 180.84C173.029 180.6 172.699 180.28 172.439 180.22C172.35 180.198 172.255 180.199 172.166 180.223C172.077 180.248 171.995 180.295 171.929 180.36L172.139 179.58L173.059 179.78L173.159 179.3L171.779 179C171.75 179.067 171.73 179.138 171.719 179.21C171.719 179.28 171.809 179.3 171.809 179.38C171.809 179.46 171.809 179.45 171.809 179.49C171.828 179.549 171.867 179.598 171.919 179.63C171.969 179.63 172.019 179.72 172.009 179.78C172.016 179.799 172.016 179.821 172.009 179.84C171.972 179.932 171.905 180.009 171.819 180.06C171.78 180.068 171.745 180.089 171.719 180.12V180.18C171.719 180.25 171.639 180.29 171.579 180.33C171.519 180.37 171.369 180.69 171.309 180.91L171.809 181.02V180.92C171.859 180.68 171.989 180.62 172.149 180.65C172.309 180.68 172.409 180.8 172.349 181.04L172.189 181.78C172.189 182.01 172.019 182.08 171.849 182.04C171.679 182 171.599 181.9 171.649 181.66L171.719 181.35L171.219 181.24L171.159 181.52C171.121 181.629 171.106 181.744 171.115 181.859C171.124 181.974 171.158 182.085 171.214 182.186C171.27 182.287 171.347 182.374 171.44 182.443C171.532 182.512 171.638 182.56 171.751 182.584C171.863 182.608 171.98 182.609 172.093 182.584C172.205 182.56 172.311 182.512 172.404 182.444C172.497 182.375 172.574 182.288 172.63 182.187C172.686 182.086 172.72 181.975 172.729 181.86C172.765 181.662 172.772 181.46 172.749 181.26Z" fill="#263238"/>
<path d="M179.28 182.66C179.271 182.581 179.251 182.504 179.22 182.43C179.21 182.391 179.21 182.349 179.22 182.31C179.235 182.28 179.26 182.255 179.29 182.24C179.55 182 179.22 181.68 178.97 181.62C178.88 181.598 178.786 181.599 178.697 181.623C178.607 181.648 178.526 181.695 178.46 181.76L178.67 180.98L179.59 181.18L179.69 180.7L178.31 180.4C178.276 180.465 178.256 180.537 178.25 180.61C178.25 180.68 178.33 180.7 178.34 180.78C178.35 180.86 178.34 180.85 178.34 180.89C178.358 180.949 178.397 180.998 178.45 181.03C178.5 181.03 178.55 181.12 178.54 181.18C178.53 181.24 178.54 181.18 178.54 181.24C178.502 181.335 178.431 181.413 178.34 181.46C178.305 181.47 178.273 181.491 178.25 181.52C178.25 181.52 178.25 181.52 178.25 181.58C178.25 181.64 178.18 181.69 178.12 181.73C178.06 181.77 177.91 182.09 177.85 182.31L178.35 182.42V182.32C178.4 182.08 178.53 182.02 178.69 182.05C178.85 182.08 178.94 182.2 178.89 182.44L178.73 183.18C178.73 183.41 178.56 183.48 178.39 183.44C178.22 183.4 178.14 183.3 178.19 183.06L178.26 182.75L177.76 182.64L177.7 182.92C177.67 183.025 177.662 183.135 177.676 183.244C177.69 183.353 177.726 183.457 177.782 183.551C177.838 183.645 177.913 183.726 178.002 183.79C178.091 183.854 178.192 183.899 178.299 183.922C178.406 183.946 178.516 183.947 178.623 183.926C178.731 183.905 178.833 183.862 178.923 183.8C179.013 183.737 179.089 183.658 179.147 183.565C179.205 183.472 179.244 183.368 179.26 183.26C179.3 183.063 179.307 182.86 179.28 182.66Z" fill="#263238"/>
<path d="M173.89 180.27C173.94 180.03 174.07 179.96 174.23 180C174.281 180.007 174.329 180.032 174.363 180.07C174.398 180.109 174.418 180.158 174.42 180.21H174.59C174.596 180.239 174.608 180.267 174.625 180.291C174.642 180.315 174.665 180.335 174.69 180.35C174.75 180.4 174.83 180.43 174.9 180.48C174.933 180.375 174.943 180.264 174.93 180.155C174.917 180.045 174.881 179.94 174.825 179.845C174.768 179.751 174.692 179.669 174.602 179.606C174.511 179.543 174.408 179.5 174.3 179.48C174.19 179.443 174.073 179.432 173.957 179.447C173.842 179.463 173.732 179.504 173.635 179.569C173.539 179.634 173.458 179.72 173.4 179.821C173.342 179.921 173.308 180.034 173.3 180.15C173.295 180.213 173.295 180.277 173.3 180.34C173.3 180.5 173.3 180.45 173.46 180.51C173.62 180.57 173.67 180.65 173.53 180.7H173.62C173.62 180.7 173.62 180.77 173.62 180.8C173.62 180.83 173.62 180.85 173.57 180.89C173.579 180.916 173.579 180.944 173.57 180.97C173.57 180.97 173.49 181.1 173.47 181.12C173.441 181.169 173.4 181.211 173.35 181.24C173.22 181.32 173.16 181.24 173.12 181.44C173.08 181.64 173.07 181.66 173.05 181.76C173.012 181.869 172.997 181.986 173.007 182.101C173.017 182.217 173.051 182.329 173.108 182.431C173.164 182.532 173.241 182.62 173.334 182.689C173.428 182.759 173.534 182.807 173.648 182.832C173.761 182.857 173.878 182.858 173.992 182.834C174.105 182.81 174.213 182.763 174.306 182.694C174.4 182.626 174.478 182.539 174.536 182.438C174.594 182.337 174.629 182.225 174.64 182.11L174.8 181.41H174.74C174.622 181.357 174.508 181.293 174.4 181.22L174.31 181.14L174.11 182.04C174.11 182.28 173.93 182.35 173.77 182.31C173.61 182.27 173.52 182.16 173.57 181.92L173.86 180.56C173.854 180.476 173.875 180.391 173.92 180.32L173.89 180.27Z" fill="#263238"/>
<path d="M176.35 181.92H176.4C176.4 181.87 176.4 181.82 176.4 181.75H176.62L176.79 180.98C176.828 180.871 176.843 180.754 176.833 180.639C176.823 180.523 176.789 180.411 176.732 180.31C176.676 180.208 176.599 180.12 176.506 180.051C176.412 179.981 176.306 179.933 176.192 179.908C176.079 179.883 175.962 179.882 175.848 179.906C175.735 179.93 175.627 179.977 175.534 180.046C175.44 180.114 175.362 180.201 175.304 180.302C175.247 180.403 175.211 180.515 175.2 180.63V180.77C175.27 180.83 175.31 180.93 175.38 180.98C175.45 181.03 175.56 180.98 175.53 181.15C175.5 181.32 175.47 181.29 175.53 181.34C175.59 181.39 175.6 181.34 175.61 181.41C175.622 181.426 175.629 181.445 175.629 181.465C175.629 181.485 175.622 181.504 175.61 181.52C175.61 181.52 175.54 181.52 175.53 181.61C175.52 181.7 175.53 181.76 175.47 181.78C175.41 181.8 175.28 181.66 175.17 181.67C175.131 181.682 175.095 181.703 175.067 181.733C175.039 181.763 175.019 181.8 175.01 181.84C174.959 182.01 174.922 182.184 174.9 182.36C174.863 182.466 174.851 182.578 174.863 182.69C174.875 182.801 174.911 182.908 174.97 183.004C175.028 183.099 175.107 183.181 175.2 183.242C175.293 183.304 175.399 183.344 175.51 183.36C175.624 183.391 175.743 183.396 175.858 183.375C175.974 183.354 176.084 183.308 176.18 183.24C176.268 183.164 176.343 183.072 176.4 182.97C176.445 182.919 176.47 182.853 176.47 182.785C176.47 182.717 176.445 182.651 176.4 182.6H176.35L176.28 182.36C176.28 182.36 176.28 182.36 176.35 182.3C176.42 182.24 176.35 182.11 176.45 182.04C176.55 181.97 176.33 181.94 176.35 181.92ZM175.93 182.6C175.88 182.84 175.75 182.91 175.58 182.87C175.41 182.83 175.33 182.72 175.38 182.48L175.78 180.68C175.83 180.44 175.95 180.37 176.12 180.41C176.29 180.45 176.37 180.56 176.32 180.8L175.93 182.6Z" fill="#263238"/>
<path d="M177.24 183.16L177.13 183.67L176.62 183.56L176.73 183.05L177.24 183.16Z" fill="#263238"/>
<path d="M181.42 182.27C181.48 182.27 181.48 182.04 181.5 181.96C181.538 181.851 181.553 181.734 181.543 181.619C181.533 181.503 181.499 181.391 181.442 181.29C181.386 181.188 181.308 181.1 181.215 181.031C181.122 180.961 181.015 180.913 180.902 180.888C180.789 180.863 180.671 180.862 180.558 180.886C180.444 180.91 180.337 180.957 180.243 181.026C180.15 181.094 180.071 181.181 180.014 181.282C179.956 181.383 179.921 181.495 179.91 181.61L179.76 182.28C179.89 182.4 179.76 182.59 179.82 182.73C179.88 182.87 179.82 182.73 179.82 182.79C179.82 182.85 179.67 182.88 179.67 182.96C179.67 182.96 179.59 183.08 179.54 183.14C179.508 183.188 179.491 183.243 179.49 183.3C179.451 183.41 179.436 183.526 179.446 183.642C179.456 183.757 179.491 183.869 179.547 183.971C179.604 184.072 179.681 184.16 179.774 184.229C179.867 184.299 179.974 184.347 180.087 184.372C180.2 184.397 180.318 184.398 180.431 184.374C180.545 184.35 180.652 184.303 180.746 184.235C180.84 184.166 180.918 184.079 180.975 183.978C181.033 183.877 181.068 183.766 181.08 183.65L181.2 183.1C181.2 182.96 181.38 182.59 181.2 182.48C181.02 182.37 181.12 182.48 181.1 182.41C181.087 182.387 181.081 182.361 181.081 182.335C181.081 182.309 181.087 182.283 181.1 182.26C181.22 182.16 181.31 182.33 181.42 182.27ZM180.81 183.15C180.81 183.21 180.71 183.23 180.66 183.31C180.621 183.409 180.598 183.514 180.59 183.62C180.54 183.86 180.41 183.92 180.25 183.89C180.09 183.86 179.99 183.74 180.05 183.5C180.05 183.43 180.14 183.23 180.12 183.17C180.1 183.11 180.02 183.17 179.98 183.05C179.95 182.946 179.95 182.835 179.98 182.73C179.984 182.707 179.984 182.683 179.98 182.66C179.98 182.66 179.93 182.57 179.98 182.53C179.98 182.53 179.98 182.4 179.98 182.31C180.3 182.43 180.29 181.94 180.34 181.74C180.39 181.54 180.52 181.43 180.68 181.47C180.84 181.51 180.93 181.62 180.88 181.85C180.812 182.054 180.771 182.266 180.76 182.48C180.801 182.487 180.84 182.507 180.869 182.538C180.898 182.568 180.916 182.608 180.92 182.65C180.91 182.703 180.91 182.757 180.92 182.81C180.92 182.81 180.92 182.9 180.92 182.94C180.92 182.98 180.86 182.94 180.82 182.94C180.792 182.951 180.767 182.969 180.748 182.991C180.729 183.014 180.716 183.041 180.71 183.07L180.81 183.15Z" fill="#263238"/>
<path d="M175.83 175L179.21 175.74" stroke="#263238" stroke-linecap="round" stroke-linejoin="round"/>
<path d="M168.149 173.32L174.149 174.64" stroke="#263238" stroke-linecap="round" stroke-linejoin="round"/>
<path d="M167.649 175.64L171.609 176.5" stroke="#263238" stroke-linecap="round" stroke-linejoin="round"/>
<path opacity="0.4" d="M133 326.89C138.255 325.515 143.659 324.79 149.09 324.73C158.85 324.49 165.09 326.34 173.09 322.38C181.09 318.42 186.28 325.55 193.93 321.59C201.58 317.63 205.13 311.29 209.55 311.43C213.97 311.57 220.55 240.74 222.67 228.55C224.79 216.36 229.3 182.38 230.85 175.48L222.14 329.05L133 326.89Z" fill="white"/>
<path d="M133.42 296.67L157.81 326.34L132.05 324.74L133.42 296.67Z" fill="#92E3A9" stroke="#263238" stroke-linecap="round" stroke-linejoin="round"/>
<path d="M198.15 238L197.76 249.29C197.706 250.865 197.342 252.415 196.689 253.849C196.036 255.284 195.107 256.576 193.954 257.651C192.802 258.726 191.449 259.564 189.972 260.116C188.496 260.669 186.926 260.925 185.35 260.87L173.75 260.46C172.171 260.406 170.617 260.04 169.179 259.384C167.741 258.728 166.447 257.794 165.371 256.636C164.295 255.479 163.458 254.12 162.909 252.637C162.36 251.155 162.109 249.579 162.17 248L162.69 233.3C162.802 230.12 164.173 227.115 166.5 224.946C168.827 222.776 171.92 221.619 175.1 221.73L186.7 222.13C187.02 222.13 187.34 222.13 187.7 222.2C186.077 223.761 185.052 225.842 184.805 228.081C184.557 230.32 185.102 232.574 186.344 234.453C187.587 236.331 189.448 237.715 191.605 238.363C193.762 239.011 196.078 238.883 198.15 238Z" fill="#92E3A9" stroke="#263238" stroke-linecap="round" stroke-linejoin="round"/>
<path d="M200.24 228.25C200.203 229.335 199.846 230.386 199.213 231.268C198.58 232.15 197.699 232.825 196.682 233.207C195.666 233.588 194.559 233.66 193.501 233.412C192.444 233.165 191.484 232.609 190.742 231.816C190 231.023 189.511 230.027 189.335 228.955C189.159 227.884 189.305 226.784 189.755 225.795C190.204 224.807 190.937 223.973 191.859 223.401C192.782 222.829 193.854 222.543 194.94 222.58C196.393 222.632 197.767 223.258 198.76 224.321C199.754 225.383 200.286 226.796 200.24 228.25Z" fill="#92E3A9" stroke="#263238" stroke-linecap="round" stroke-linejoin="round"/>
<path opacity="0.4" d="M165.47 249.4L182.52 234.82C182.52 234.82 180.36 227.01 182.52 224.54H174.33C172.357 224.534 170.457 225.28 169.017 226.628C167.576 227.975 166.705 229.822 166.58 231.79L165.47 249.4Z" fill="white"/>
<path opacity="0.4" d="M192.43 228.55L196.08 224.55C196.08 224.55 193.81 223.02 192.43 224.55C191.05 226.08 192.43 228.55 192.43 228.55Z" fill="white"/>
<path d="M190.649 315.66L218.139 316.85" stroke="#263238" stroke-linecap="round" stroke-linejoin="round"/>
<path d="M181.13 318.43L218.14 320.41" stroke="#263238" stroke-linecap="round" stroke-linejoin="round"/>
<path d="M208.45 326.34H218.14" stroke="#263238" stroke-linecap="round" stroke-linejoin="round"/>
<path opacity="0.2" d="M174.759 225.37C160.579 232.19 145.219 208.3 139.839 205.01C138.513 204.173 137.277 203.201 136.149 202.11L138.489 162.91L179.999 164.58C179.729 170.42 179.819 176.87 181.119 180.58C183.919 188.67 188.929 218.56 174.759 225.37Z" fill="black" fill-opacity="0.7"/>
<path opacity="0.4" d="M158.87 226.59C158.87 226.59 170.21 231.51 175.35 228.59C180.49 225.67 186.03 220.09 186.82 207.7C186.82 207.7 193.57 225.15 179.96 230.38C166.35 235.61 158.87 226.59 158.87 226.59Z" fill="white"/>
<path opacity="0.4" d="M154.45 233.57C154.45 233.57 177.45 239.75 187.29 228.57C187.29 228.57 185.97 234.78 175.35 236.57C164.73 238.36 154.45 233.57 154.45 233.57Z" fill="white"/>
<path opacity="0.4" d="M191.44 193.62C189.69 190.51 191.84 218.46 191.84 218.46C191.84 218.46 195 200 191.44 193.62Z" fill="white"/>
</g>
<path d="M233.62 166.73L223.92 331.48L128.63 328.35L136.15 202.11L138.49 162.91L180.01 164.58L233.62 166.73Z" stroke="#263238" stroke-linecap="round" stroke-linejoin="round"/>
<path opacity="0.4" d="M228.8 332.36L225.33 331.48L233.62 180.61L235.09 190.57L228.8 332.36Z" fill="white"/>
<path d="M174.76 225.37C173.448 226.067 171.99 226.442 170.505 226.465C169.02 226.487 167.552 226.157 166.22 225.5C163.914 224.29 162.054 222.378 160.91 220.04C156.96 212.92 146.27 196.7 144.3 192.04C142.33 187.38 137.97 174.2 133.62 168.67C129.27 163.14 126.89 154.82 126.89 154.82L125.31 74.12C127.68 85.79 134.21 99.04 134.21 99.04C139.883 101.992 144.703 106.351 148.21 111.7C149.23 112.787 150.144 113.969 150.94 115.23C157.4 125.23 160.53 143.23 160.87 157.23C161.27 173.06 166.41 180.23 174.72 194.02C183.03 207.81 180.16 222.3 174.76 225.37Z" fill="white"/>
<path opacity="0.4" d="M174.76 225.37C173.444 226.05 171.987 226.416 170.506 226.438C169.024 226.461 167.557 226.14 166.22 225.5C170.76 224.26 176.72 221.93 175.35 218.5C173.2 213.02 166.91 221.15 163.75 218.5C160.59 215.85 149.11 200.65 156.4 193.96C163.69 187.27 161.4 176.05 156.4 172.89C151.4 169.73 154.65 162.2 156.23 150.35C157.23 143.18 153.8 126.94 150.98 115.22C157.44 125.22 160.57 143.22 160.91 157.22C161.31 173.05 166.45 180.22 174.76 194.01C183.07 207.8 180.16 222.49 174.76 225.37Z" fill="#92E3A9"/>
<path d="M125.31 74.0701C127.68 85.7401 134.21 98.9901 134.21 98.9901C139.883 101.942 144.703 106.301 148.21 111.65C156.52 120.35 160.48 141.32 160.87 157.14C161.26 172.96 166.41 180.14 174.72 193.93C183.03 207.72 180.72 222.1 174.72 225.37C170.54 227.66 164.83 227.16 160.87 220.04C156.91 212.92 146.23 196.7 144.26 192.04C142.29 187.38 137.93 174.2 133.58 168.67C129.23 163.14 126.85 154.82 126.85 154.82" stroke="#263238" stroke-linecap="round" stroke-linejoin="round"/>
<path d="M151 190.57C151 190.57 157.46 189.99 160.42 187.57" stroke="#263238" stroke-linecap="round" stroke-linejoin="round"/>
<path d="M124.52 156.41C124.52 156.41 123.26 159.41 129.86 162.41" stroke="#263238" stroke-linecap="round" stroke-linejoin="round"/>
</svg>
